# xmcd
#
# Track frame offsets:
#	150
#	11635
#	23122
#	34590
#	45459
#	56067
#	66395
#	76698
#	87063
#	98206
#	111299
#	121895
#	132682
#	144390
#
# Disc length: 2095 seconds
#
# Revision: 4
# Processed by: cddbd v1.4PL0 Copyright (c) Steve Scherf et al.
# Submitted via: audiograbber 1.81.02
#
DISCID=b6082d0e
DTITLE=Patsy Cline - Forever Gold
DYEAR=1999
DGENRE=Country
TTITLE0=Walkin' After Midnight
TTITLE1=The Heart You Break May Be Your Own
TTITLE2=I've Loved and Lost Again
TTITLE3=Stop Look and Listen
TTITLE4=I Can See an Angel
TTITLE5=Walking Dream
TTITLE6=Too Many Secrets
TTITLE7=Turn the Cards Slowly
TTITLE8=Just Out of Reach
TTITLE9=If I Could See the World
TTITLE10=Honky Tonk Merry Go Round
TTITLE11=I Cried All the Way to the Altar
TTITLE12=Cry Not for Me
TTITLE13=Yes I Understand
EXTD=
EXTT0=
EXTT1=
EXTT2=
EXTT3=
EXTT4=
EXTT5=
EXTT6=
EXTT7=
EXTT8=
EXTT9=
EXTT10=
EXTT11=
EXTT12=
EXTT13=
PLAYORDER=
